<svg xmlns="http://www.w3.org/2000/svg" width="720" height="400" viewBox="0 0 720 400" fill="none">
    <defs>
      <linearGradient id="bg" x1="0" y1="0" x2="720" y2="400" gradientUnits="userSpaceOnUse">
        <stop stop-color="#06141f"/>
        <stop offset="1" stop-color="#0b2b3d"/>
      </linearGradient>
      <filter id="blur" x="-50%" y="-50%" width="200%" height="200%"><feGaussianBlur stdDeviation="18"/></filter>
      <filter id="shadow" x="-50%" y="-50%" width="200%" height="200%"><feDropShadow dx="0" dy="10" stdDeviation="14" flood-color="#011018" flood-opacity="0.45"/></filter>
    </defs>
    <rect width="720" height="400" rx="28" fill="url(#bg)"/>
    
<circle cx="90" cy="90" r="60" fill="#51d8ff" fill-opacity=".15" filter="url(#blur)"/>
<circle cx="620" cy="90" r="80" fill="#79f0e8" fill-opacity=".12" filter="url(#blur)"/>
<circle cx="540" cy="320" r="90" fill="#ff9e4a" fill-opacity=".12" filter="url(#blur)"/>
<path d="M0 260C120 210 180 320 300 280C420 240 470 120 720 220V400H0V260Z" fill="#ffffff" fill-opacity=".04"/>

    
<g filter="url(#shadow)">
  <circle cx="120" cy="235" r="44" fill="#FFD6B3"/>
  <rect x="78" y="278" width="86" height="72" rx="26" fill="#4F7CFF"/>
  <circle cx="620" cy="235" r="44" fill="#F0C4A8"/>
  <rect x="578" y="278" width="86" height="72" rx="26" fill="#FF9E4A"/>
  <rect x="152" y="198" width="114" height="84" rx="18" fill="#102A3F"/>
  <rect x="454" y="198" width="114" height="84" rx="18" fill="#102A3F"/>
  <rect x="162" y="208" width="94" height="64" rx="12" fill="#EAF7FF"/>
  <rect x="464" y="208" width="94" height="64" rx="12" fill="#EAF7FF"/>
  <path d="M185 232H236" stroke="#51D8FF" stroke-width="8" stroke-linecap="round"/>
  <path d="M487 232H538" stroke="#FF9E4A" stroke-width="8" stroke-linecap="round"/>
</g>
<g filter="url(#shadow)"><rect x="238" y="116" width="244" height="172" rx="32" fill="#F7FBFF" fill-opacity=".08" stroke="#79F0E8" stroke-opacity=".4"/><rect x="270" y="146" width="180" height="112" rx="24" fill="#0C2232"/><path d="M296 176H426" stroke="#79F0E8" stroke-width="10" stroke-linecap="round"/><path d="M296 204H386" stroke="#FF9E4A" stroke-width="10" stroke-linecap="round"/><path d="M296 232H344" stroke="#9D8CFF" stroke-width="10" stroke-linecap="round"/></g><text x="42" y="54" fill="#F7FBFF" font-size="28" font-family="Arial, sans-serif" font-weight="700">Classroom Energy</text>
    </svg>