<svg xmlns="http://www.w3.org/2000/svg" width="720" height="400" viewBox="0 0 720 400" fill="none">
    <defs>
      <linearGradient id="bg" x1="0" y1="0" x2="720" y2="400" gradientUnits="userSpaceOnUse">
        <stop stop-color="#06141f"/>
        <stop offset="1" stop-color="#0b2b3d"/>
      </linearGradient>
      <filter id="blur" x="-50%" y="-50%" width="200%" height="200%"><feGaussianBlur stdDeviation="18"/></filter>
      <filter id="shadow" x="-50%" y="-50%" width="200%" height="200%"><feDropShadow dx="0" dy="10" stdDeviation="14" flood-color="#011018" flood-opacity="0.45"/></filter>
    </defs>
    <rect width="720" height="400" rx="28" fill="url(#bg)"/>
    
<circle cx="90" cy="90" r="60" fill="#51d8ff" fill-opacity=".15" filter="url(#blur)"/>
<circle cx="620" cy="90" r="80" fill="#79f0e8" fill-opacity=".12" filter="url(#blur)"/>
<circle cx="540" cy="320" r="90" fill="#ff9e4a" fill-opacity=".12" filter="url(#blur)"/>
<path d="M0 260C120 210 180 320 300 280C420 240 470 120 720 220V400H0V260Z" fill="#ffffff" fill-opacity=".04"/>

    <g filter="url(#shadow)"><rect x="72" y="86" width="576" height="228" rx="30" fill="#F7FBFF" fill-opacity=".08" stroke="#79F0E8" stroke-opacity=".4"/><rect x="108" y="118" width="210" height="132" rx="24" fill="#0C2232"/><rect x="134" y="144" width="160" height="80" rx="18" fill="#F7FBFF"/><circle cx="420" cy="164" r="38" fill="#51D8FF" fill-opacity=".24"/><circle cx="508" cy="164" r="38" fill="#FF9E4A" fill-opacity=".24"/><circle cx="596" cy="164" r="38" fill="#9D8CFF" fill-opacity=".24"/><rect x="374" y="224" width="256" height="18" rx="9" fill="#F7FBFF" fill-opacity=".22"/><rect x="374" y="254" width="198" height="18" rx="9" fill="#F7FBFF" fill-opacity=".14"/><rect x="374" y="284" width="140" height="18" rx="9" fill="#F7FBFF" fill-opacity=".12"/><path d="M162 224C188 198 216 198 242 224" stroke="#51D8FF" stroke-width="10" stroke-linecap="round"/></g><text x="58" y="58" fill="#F7FBFF" font-size="28" font-family="Arial, sans-serif" font-weight="700">Future Classroom</text><text x="58" y="92" fill="#B8D4E8" font-size="16" font-family="Arial, sans-serif">対話・可視化・達成感を一画面で。</text>
    </svg>