<svg xmlns="http://www.w3.org/2000/svg" width="720" height="400" viewBox="0 0 720 400" fill="none">
    <defs>
      <linearGradient id="bg" x1="0" y1="0" x2="720" y2="400" gradientUnits="userSpaceOnUse">
        <stop stop-color="#06141f"/>
        <stop offset="1" stop-color="#0b2b3d"/>
      </linearGradient>
      <filter id="blur" x="-50%" y="-50%" width="200%" height="200%"><feGaussianBlur stdDeviation="18"/></filter>
      <filter id="shadow" x="-50%" y="-50%" width="200%" height="200%"><feDropShadow dx="0" dy="10" stdDeviation="14" flood-color="#011018" flood-opacity="0.45"/></filter>
    </defs>
    <rect width="720" height="400" rx="28" fill="url(#bg)"/>
    
<circle cx="90" cy="90" r="60" fill="#51d8ff" fill-opacity=".15" filter="url(#blur)"/>
<circle cx="620" cy="90" r="80" fill="#79f0e8" fill-opacity=".12" filter="url(#blur)"/>
<circle cx="540" cy="320" r="90" fill="#ff9e4a" fill-opacity=".12" filter="url(#blur)"/>
<path d="M0 260C120 210 180 320 300 280C420 240 470 120 720 220V400H0V260Z" fill="#ffffff" fill-opacity=".04"/>

    
<g filter="url(#shadow)">
  <circle cx="120" cy="235" r="44" fill="#FFD6B3"/>
  <rect x="78" y="278" width="86" height="72" rx="26" fill="#4F7CFF"/>
  <circle cx="620" cy="235" r="44" fill="#F0C4A8"/>
  <rect x="578" y="278" width="86" height="72" rx="26" fill="#FF9E4A"/>
  <rect x="152" y="198" width="114" height="84" rx="18" fill="#102A3F"/>
  <rect x="454" y="198" width="114" height="84" rx="18" fill="#102A3F"/>
  <rect x="162" y="208" width="94" height="64" rx="12" fill="#EAF7FF"/>
  <rect x="464" y="208" width="94" height="64" rx="12" fill="#EAF7FF"/>
  <path d="M185 232H236" stroke="#51D8FF" stroke-width="8" stroke-linecap="round"/>
  <path d="M487 232H538" stroke="#FF9E4A" stroke-width="8" stroke-linecap="round"/>
</g>

<g filter="url(#shadow)">
  <rect x="270" y="78" width="180" height="136" rx="56" fill="#F7FBFF"/>
  <rect x="296" y="102" width="128" height="88" rx="28" fill="#0D2233"/>
  <circle cx="335" cy="146" r="10" fill="#79F0E8"/>
  <circle cx="385" cy="146" r="10" fill="#79F0E8"/>
  <path d="M330 170C346 184 374 184 390 170" stroke="#51D8FF" stroke-width="8" stroke-linecap="round"/>
  <path d="M288 96L260 70" stroke="#F7FBFF" stroke-width="16" stroke-linecap="round"/>
  <path d="M432 96L460 70" stroke="#F7FBFF" stroke-width="16" stroke-linecap="round"/>
  <circle cx="258" cy="68" r="14" fill="#51D8FF"/>
  <circle cx="462" cy="68" r="14" fill="#51D8FF"/>
  <rect x="310" y="214" width="100" height="30" rx="15" fill="#51D8FF"/>
  <path d="M315 242L285 285" stroke="#F7FBFF" stroke-width="18" stroke-linecap="round"/>
  <path d="M405 242L435 285" stroke="#F7FBFF" stroke-width="18" stroke-linecap="round"/>
  <path d="M330 244V292" stroke="#F7FBFF" stroke-width="18" stroke-linecap="round"/>
  <path d="M390 244V292" stroke="#F7FBFF" stroke-width="18" stroke-linecap="round"/>
  <circle cx="330" cy="304" r="13" fill="#FF9E4A"/>
  <circle cx="390" cy="304" r="13" fill="#FF9E4A"/>
</g>
<text x="40" y="58" fill="#F7FBFF" font-size="28" font-family="Arial, sans-serif" font-weight="700">Kebbi × Edutex Learning Lab</text><text x="40" y="92" fill="#B8D4E8" font-size="16" font-family="Arial, sans-serif">ロボットと一緒に、情報Ⅰを楽しく実践。</text>
    </svg>