<svg xmlns="http://www.w3.org/2000/svg" width="900" height="640" viewBox="0 0 900 640" fill="none">
  <defs>
    <linearGradient id="bg" x1="60" y1="40" x2="820" y2="560" gradientUnits="userSpaceOnUse"><stop stop-color="#091825"/><stop offset="0.6" stop-color="#0E3047"/><stop offset="1" stop-color="#1A2149"/></linearGradient>
  </defs>
  <rect width="900" height="640" rx="30" fill="url(#bg)"/>
  <circle cx="718" cy="150" r="110" fill="#5EE8FF" fill-opacity="0.12"/>
  <rect x="72" y="92" width="756" height="456" rx="26" fill="#0F2338" stroke="#63E8FF" stroke-opacity="0.18"/>
  <text x="108" y="150" fill="#F4FBFF" font-family="Inter, Arial, sans-serif" font-size="34" font-weight="800">Orbit Dashboard</text>
  <text x="108" y="182" fill="#A7C9D8" font-family="Inter, Arial, sans-serif" font-size="22">進行・苦手・得意の軌道をひと目で確認</text>
  <circle cx="240" cy="314" r="108" fill="#122A42" stroke="#5DE7FF" stroke-opacity="0.3" stroke-width="3"/>
  <circle cx="240" cy="314" r="78" fill="none" stroke="#FF9D43" stroke-opacity="0.4" stroke-width="16" stroke-dasharray="200 120" stroke-linecap="round"/>
  <circle cx="240" cy="314" r="54" fill="none" stroke="#63E9FF" stroke-opacity="0.7" stroke-width="16" stroke-dasharray="140 120" stroke-linecap="round"/>
  <text x="196" y="304" fill="#F4FBFF" font-family="Inter, Arial, sans-serif" font-size="22">Growth</text>
  <text x="192" y="336" fill="#63E9FF" font-family="Inter, Arial, sans-serif" font-size="40" font-weight="800">82%</text>
  <g transform="translate(410 228)">
    <rect width="356" height="64" rx="20" fill="#122A42"/><rect x="18" y="18" width="180" height="28" rx="14" fill="#5DE7FF" fill-opacity="0.18"/>
    <rect x="18" y="18" width="138" height="28" rx="14" fill="#5DE7FF"/>
    <text x="222" y="38" fill="#F4FBFF" font-family="Inter, Arial, sans-serif" font-size="18">アルゴリズム理解</text>
  </g>
  <g transform="translate(410 318)">
    <rect width="356" height="64" rx="20" fill="#122A42"/><rect x="18" y="18" width="180" height="28" rx="14" fill="#FF9D43" fill-opacity="0.18"/>
    <rect x="18" y="18" width="102" height="28" rx="14" fill="#FF9D43"/>
    <text x="222" y="38" fill="#F4FBFF" font-family="Inter, Arial, sans-serif" font-size="18">ネットワーク理解</text>
  </g>
  <g transform="translate(410 408)">
    <rect width="356" height="64" rx="20" fill="#122A42"/><rect x="18" y="18" width="180" height="28" rx="14" fill="#6CEFD9" fill-opacity="0.18"/>
    <rect x="18" y="18" width="156" height="28" rx="14" fill="#6CEFD9"/>
    <text x="222" y="38" fill="#F4FBFF" font-family="Inter, Arial, sans-serif" font-size="18">表現・発表</text>
  </g>
</svg>
